# xmcd
#
# Track frame offsets:
#	150
#	13635
#	32432
#	50541
#	66881
#	83504
#	104246
#	121436
#	138316
#	154613
#	170669
#	190183
#	206843
#	224838
#	244944
#
# Disc length: 3488 seconds
#
# Revision: 0
# Processed by: cddbd v1.5.2PL0 Copyright (c) Steve Scherf et al.
# Submitted via: EasyCDDAExtractor 15.3.0.1
#
DISCID=dc0d9e0f
DTITLE=Eric Dodge - Ultimate Collection
DYEAR=2013
DGENRE=Country
TTITLE0=My Best
TTITLE1=Why Not Today
TTITLE2=Home to Me
TTITLE3=It's a Woman's World
TTITLE4=Better Days to Come
TTITLE5=Home of the Brave
TTITLE6=When I Was Your Age
TTITLE7=Life is for the Living
TTITLE8=Too Much to Believe
TTITLE9=That Kind of Country Song
TTITLE10=The Last Real Cowboy
TTITLE11=Bring Him Home
TTITLE12=I Pledge
TTITLE13=Since I Let You Go
TTITLE14=Don't Miss the Good Stuff
EXTD=
EXTT0=
EXTT1=
EXTT2=
EXTT3=
EXTT4=
EXTT5=
EXTT6=
EXTT7=
EXTT8=
EXTT9=
EXTT10=
EXTT11=
EXTT12=
EXTT13=
EXTT14=
PLAYORDER=
